# xmcd
#
# Track frame offsets: 
#        150
#        33787
#        57330
#        84798
#        116452
#        150188
#        184465
#        214141
#        243058
#        262919
#        290605
#        324837
#
# Disc length: 4693 seconds
#
# Revision: 0
# Processed by: cddbd v1.5.2PL0 Copyright (c) Steve Scherf et al.
# Submitted via: ExactAudioCopy v0.95b3
#
DISCID=9112530c
DTITLE=Tia - Absolutely [CD2] [7528]
DYEAR=2010
DGENRE=Pop
TTITLE0=Boy Toy (Extended Version)
TTITLE1=Baby Talk (12'' Mix)
TTITLE2=Cupid (Hot Mix)
TTITLE3=Boy Toy (Toy Mix)
TTITLE4=Infactuation (12'' Version)
TTITLE5=Delirious (Extended Mix)
TTITLE6=Boy Toy (Boy Mix)
TTITLE7=Sugar Baby (Extended Version)
TTITLE8=Boy Toy (Club Mix)
TTITLE9=Infactuation (Rap Attack)
TTITLE10=Dance To The Music (Dance Version)
TTITLE11=Bounce Back (Club Version)
EXTD=
EXTT0=
EXTT1=
EXTT2=
EXTT3=
EXTT4=
EXTT5=
EXTT6=
EXTT7=
EXTT8=
EXTT9=
EXTT10=
EXTT11=
PLAYORDER=
